# File created by Blade
# Date/Time:  Wed Jan 21 17:34:04 2015
# Frame Rate: 120.000 fps
#------------------------------------------------------
:FULLY-SPECIFIED
:DEGREES
712
root 19.789429 5.674140 -20.869022 -169.925608 -36.979958 -143.359531
Spine -11.223271 -3.174926 29.117286
Head 23.517364 -42.286593 9.789399
LeftShoulder -12.359765 -10.628619 8.152826
LeftArm -23.837956 19.620896 -82.173249
LeftForeArm 4.440682 -0.000000 32.945497
LeftHand 0.016270 -0.000000 -0.077239
LeftHandThumb1 -26.253704 0.000000 33.147579
RightShoulder -30.334877 -16.902212 15.595204
RightArm -42.726947 69.140963 30.508824
RightForeArm 23.119054 0.000000 98.730396
RightHand -0.774493 -0.000000 -18.470942
RightHandThumb1 -24.326973 -0.000000 -32.862282
LeftUpLeg -97.049630 -26.923521 -53.565545
LeftLeg 137.551620 -0.000000 -0.000000
LeftFoot 31.803752 20.716546 4.067473
LeftToeBase 22.263574 -0.000000 -0.000000
RightUpLeg 18.885451 40.514454 -9.759520
RightLeg 130.108404 -0.000000 -0.000000
RightFoot 43.027300 -21.778088 -17.187396
RightToeBase 17.676835 -0.000000 -0.000000
713
root 19.794030 5.669908 -20.868109 -169.840281 -36.976111 -143.400579
Spine -11.370979 -3.080213 29.278291
Head 23.293927 -41.912147 9.534101
LeftShoulder -12.394724 -10.682071 8.035264
LeftArm -23.771320 19.488032 -82.098320
LeftForeArm 4.577575 -0.000000 32.665395
LeftHand 0.144862 -0.000000 -0.335129
LeftHandThumb1 -26.253704 0.000000 33.147579
RightShoulder -30.413328 -16.912528 15.667988
RightArm -42.698168 69.414267 30.459593
RightForeArm 22.926466 -0.000000 99.296632
RightHand -0.947253 -0.000000 -18.760394
RightHandThumb1 -24.326973 -0.000000 -32.862282
LeftUpLeg -97.118469 -26.978303 -53.553108
LeftLeg 137.541218 -0.000000 -0.000000
LeftFoot 31.902218 20.979099 3.671576
LeftToeBase 21.739342 -0.000000 -0.000000
RightUpLeg 18.844477 40.602761 -9.804357
RightLeg 130.126414 -0.000000 -0.000000
RightFoot 43.169120 -21.592821 -17.197284
RightToeBase 17.556389 -0.000000 -0.000000
714
root 19.798357 5.665409 -20.864865 -169.743864 -36.965364 -143.436289
Spine -11.518726 -2.968685 29.465282
Head 23.045578 -41.530707 9.258783
LeftShoulder -12.417254 -10.743121 7.920234
LeftArm -23.709256 19.417620 -82.054268
LeftForeArm 4.602311 0.000000 32.362150
LeftHand 0.279726 0.000000 -0.478300
LeftHandThumb1 -26.253704 0.000000 33.147579
RightShoulder -30.456355 -16.811498 15.666019
RightArm -43.054481 69.623665 30.046541
RightForeArm 22.875997 0.000000 99.836457
RightHand -1.081217 -0.000000 -19.090525
RightHandThumb1 -24.326973 -0.000000 -32.862282
LeftUpLeg -97.173713 -27.051804 -53.558525
LeftLeg 137.580727 -0.000000 -0.000000
LeftFoot 31.725663 20.634879 4.048150
LeftToeBase 22.388301 -0.000000 -0.000000
RightUpLeg 18.776578 40.677816 -9.870151
RightLeg 130.149905 -0.000000 -0.000000
RightFoot 43.249991 -21.445024 -17.178009
RightToeBase 17.473591 -0.000000 -0.000000
715
root 19.802168 5.660108 -20.862867 -169.667911 -36.958280 -143.457973
Spine -11.657981 -2.931169 29.675963
Head 22.836558 -41.141584 8.940384
LeftShoulder -12.474989 -10.743434 7.800555
LeftArm -23.611805 19.304758 -81.987640
LeftForeArm 4.639701 0.000000 32.081757
LeftHand 0.363763 -0.000000 -0.647297
LeftHandThumb1 -26.253704 0.000000 33.147579
RightShoulder -30.456644 -16.740122 15.691725
RightArm -43.548203 69.876965 29.465992
RightForeArm 22.905269 0.000000 100.387661
RightHand -1.283640 -0.000000 -19.226593
RightHandThumb1 -24.326973 -0.000000 -32.862282
LeftUpLeg -97.232458 -27.117840 -53.543335
LeftLeg 137.601249 -0.000000 -0.000000
LeftFoot 31.651111 20.530503 4.090393
LeftToeBase 22.507180 -0.000000 -0.000000
RightUpLeg 18.748247 40.710367 -9.899063
RightLeg 130.175198 -0.000000 -0.000000
RightFoot 43.252589 -21.241426 -17.176880
RightToeBase 17.510209 -0.000000 -0.000000
716
root 19.806345 5.654143 -20.859992 -169.584416 -36.938032 -143.479837
Spine -11.785588 -2.842642 29.892002
Head 22.522220 -40.689123 8.704223
LeftShoulder -12.467377 -10.778782 7.650467
LeftArm -23.575959 19.198582 -81.912010
LeftForeArm 4.682380 -0.000000 31.855644
LeftHand 0.423503 -0.000000 -0.794204
LeftHandThumb1 -26.253704 0.000000 33.147579
RightShoulder -30.517287 -16.634412 15.657473
RightArm -44.033619 70.240077 28.937635
RightForeArm 22.772162 -0.000000 100.846430
RightHand -1.417366 -0.000000 -19.285837
RightHandThumb1 -24.326973 -0.000000 -32.862282
LeftUpLeg -97.296449 -27.186069 -53.551560
LeftLeg 137.608052 -0.000000 -0.000000
LeftFoot 31.637312 20.580854 4.058334
LeftToeBase 22.397378 -0.000000 -0.000000
RightUpLeg 18.706273 40.735975 -9.941675
RightLeg 130.181963 -0.000000 -0.000000
RightFoot 43.278166 -21.052847 -17.127344
RightToeBase 17.533396 -0.000000 -0.000000
717
root 19.808059 5.647155 -20.856860 -169.516626 -36.927384 -143.505871
Spine -11.897103 -2.796471 30.103076
Head 22.189251 -40.269754 8.527571
LeftShoulder -12.496853 -10.835358 7.549866
LeftArm -23.545130 19.097697 -81.896483
LeftForeArm 4.682530 -0.000000 31.576776
LeftHand 0.522322 -0.000000 -0.852750
LeftHandThumb1 -26.253704 0.000000 33.147579
RightShoulder -30.590991 -16.646213 15.750402
RightArm -44.244173 70.651478 28.628127
RightForeArm 22.620972 -0.000000 101.281142
RightHand -1.471424 -0.000000 -19.466329
RightHandThumb1 -24.326973 -0.000000 -32.862282
LeftUpLeg -97.331242 -27.250573 -53.567281
LeftLeg 137.607544 -0.000000 -0.000000
LeftFoot 31.624353 20.617973 4.037711
LeftToeBase 22.529777 -0.000000 -0.000000
RightUpLeg 18.674478 40.702337 -10.002033
RightLeg 130.166195 -0.000000 -0.000000
RightFoot 43.333595 -20.906123 -17.119475
RightToeBase 17.428230 -0.000000 -0.000000
718
root 19.808087 5.638286 -20.852676 -169.456018 -36.895879 -143.516220
Spine -12.002345 -2.786846 30.362592
Head 21.886523 -39.813447 8.263529
LeftShoulder -12.537279 -10.841660 7.426907
LeftArm -23.504109 18.925320 -81.864217
LeftForeArm 4.687002 -0.000000 31.295743
LeftHand 0.649312 0.000000 -0.963125
LeftHandThumb1 -26.253704 0.000000 33.147579
RightShoulder -30.565789 -16.553184 15.696138
RightArm -44.872512 70.919992 27.973443
RightForeArm 22.578963 -0.000000 101.730445
RightHand -1.594418 -0.000000 -19.571470
RightHandThumb1 -24.326973 -0.000000 -32.862282
LeftUpLeg -97.383134 -27.304915 -53.562134
LeftLeg 137.611916 -0.000000 -0.000000
LeftFoot 31.590327 20.580131 4.030951
LeftToeBase 22.521373 -0.000000 -0.000000
RightUpLeg 18.621755 40.665674 -10.076069
RightLeg 130.145696 -0.000000 -0.000000
RightFoot 43.335785 -20.889982 -17.015429
RightToeBase 17.254648 -0.000000 -0.000000
719
root 19.807445 5.629924 -20.848824 -169.414620 -36.861834 -143.534845
Spine -12.084355 -2.761838 30.603108
Head 21.581421 -39.326497 8.043160
LeftShoulder -12.564690 -10.883857 7.311147
LeftArm -23.464121 18.803176 -81.859739
LeftForeArm 4.619963 -0.000000 30.967233
LeftHand 0.757422 -0.000000 -1.061848
LeftHandThumb1 -26.253704 0.000000 33.147579
RightShoulder -30.635361 -16.569766 15.748578
RightArm -45.148738 71.368485 27.646397
RightForeArm 22.494306 -0.000000 102.151438
RightHand -1.718726 0.000000 -19.534381
RightHandThumb1 -24.326973 -0.000000 -32.862282
LeftUpLeg -97.407039 -27.341610 -53.591354
LeftLeg 137.603435 -0.000000 -0.000000
LeftFoot 31.600077 20.634198 4.061257
LeftToeBase 22.570941 -0.000000 -0.000000
RightUpLeg 18.609050 40.596455 -10.131224
RightLeg 130.125923 -0.000000 -0.000000
RightFoot 43.391332 -20.821141 -16.982739
RightToeBase 16.851733 -0.000000 -0.000000
720
root 19.806853 5.621201 -20.846245 -169.384963 -36.821870 -143.524132
Spine -12.178489 -2.761815 30.883918
Head 21.310851 -38.849296 7.782990
LeftShoulder -12.602694 -10.944368 7.221956
LeftArm -23.476417 18.625534 -81.893300
LeftForeArm 4.624363 0.000000 30.646590
LeftHand 0.826697 0.000000 -1.121739
LeftHandThumb1 -26.253704 0.000000 33.147579
RightShoulder -30.577785 -16.408928 15.659554
RightArm -46.138237 71.585015 26.664121
RightForeArm 22.584533 -0.000000 102.562164
RightHand -1.729998 -0.000000 -19.648168
RightHandThumb1 -24.326973 -0.000000 -32.862282
LeftUpLeg -97.452933 -27.382208 -53.605329
LeftLeg 137.575810 -0.000000 -0.000000
LeftFoot 31.748176 21.042405 3.670459
LeftToeBase 21.812355 -0.000000 -0.000000
RightUpLeg 18.602048 40.506132 -10.161895
RightLeg 130.127068 -0.000000 -0.000000
RightFoot 43.200858 -20.575074 -17.033118
RightToeBase 17.280434 -0.000000 -0.000000
721
root 19.805577 5.610453 -20.842237 -169.360688 -36.783831 -143.533481
Spine -12.246366 -2.775338 31.154732
Head 21.023289 -38.334194 7.531257
LeftShoulder -12.665649 -10.962401 7.135987
LeftArm -23.394151 18.482758 -81.926542
LeftForeArm 4.650936 0.000000 30.253670
LeftHand 0.944123 0.000000 -1.140817
LeftHandThumb1 -26.253704 0.000000 33.147579
RightShoulder -30.676831 -16.391251 15.649164
RightArm -46.260004 71.898278 26.509186
RightForeArm 22.538868 -0.000000 102.922632
RightHand -1.787603 -0.000000 -19.624967
RightHandThumb1 -24.326973 -0.000000 -32.862282
LeftUpLeg -97.460178 -27.418512 -53.641967
LeftLeg 137.579376 -0.000000 -0.000000
LeftFoot 31.632862 20.917855 3.965932
LeftToeBase 22.538185 -0.000000 -0.000000
RightUpLeg 18.576590 40.381943 -10.253106
RightLeg 130.113419 -0.000000 -0.000000
RightFoot 43.117184 -20.538491 -17.005498
RightToeBase 17.268373 -0.000000 -0.000000
722
root 19.802306 5.599571 -20.836651 -169.319445 -36.732948 -143.536029
Spine -12.341533 -2.744198 31.437427
Head 20.739825 -37.830450 7.279858
LeftShoulder -12.646754 -10.995110 7.021935
LeftArm -23.389936 18.290928 -81.959231
LeftForeArm 4.677198 -0.000000 29.916722
LeftHand 1.040676 -0.000000 -1.199940
LeftHandThumb1 -26.253704 0.000000 33.147579
RightShoulder -30.752476 -16.328435 15.655691
RightArm -46.839500 72.289861 25.875788
RightForeArm 22.592158 -0.000000 103.313193
RightHand -1.843746 -0.000000 -19.518272
RightHandThumb1 -24.326973 -0.000000 -32.862282
LeftUpLeg -97.503772 -27.464112 -53.636297
LeftLeg 137.564051 -0.000000 -0.000000
LeftFoot 31.598761 20.943569 3.953830
LeftToeBase 22.559677 -0.000000 -0.000000
RightUpLeg 18.496653 40.247364 -10.389790
RightLeg 130.078425 -0.000000 -0.000000
RightFoot 43.209025 -20.539404 -17.065202
RightToeBase 16.954772 -0.000000 -0.000000
723
root 19.797277 5.588046 -20.830610 -169.268960 -36.689605 -143.545016
Spine -12.454402 -2.775668 31.745492
Head 20.518404 -37.280294 6.934664
LeftShoulder -12.726354 -11.017579 6.927797
LeftArm -23.371756 18.183006 -82.022253
LeftForeArm 4.714725 -0.000000 29.544839
LeftHand 1.163985 -0.000000 -1.205747
LeftHandThumb1 -26.253704 0.000000 33.147579
RightShoulder -30.755970 -16.316561 15.632690
RightArm -47.329441 72.537627 25.339613
RightForeArm 22.857529 0.000000 103.636363
RightHand -1.707923 -0.000000 -19.820941
RightHandThumb1 -24.326973 -0.000000 -32.862282
LeftUpLeg -97.527563 -27.524983 -53.661231
LeftLeg 137.535220 -0.000000 -0.000000
LeftFoot 31.602073 21.074856 3.883891
LeftToeBase 22.513703 -0.000000 -0.000000
RightUpLeg 18.405861 40.092412 -10.535547
RightLeg 130.050931 -0.000000 -0.000000
RightFoot 43.191890 -20.426086 -17.071450
RightToeBase 16.689086 -0.000000 -0.000000
724
root 19.791629 5.577330 -20.825391 -169.230728 -36.624450 -143.538387
Spine -12.566530 -2.785318 32.056962
Head 20.317823 -36.718018 6.601707
LeftShoulder -12.748833 -10.994450 6.814012
LeftArm -23.321067 18.042333 -82.061064
LeftForeArm 4.641492 -0.000000 29.160333
LeftHand 1.339084 -0.000000 -1.361591
LeftHandThumb1 -26.253704 0.000000 33.147579
RightShoulder -30.808443 -16.295170 15.627232
RightArm -47.960907 72.892371 24.621988
RightForeArm 22.641874 0.000000 103.932523
RightHand -1.903382 -0.000000 -19.720243
RightHandThumb1 -24.326973 -0.000000 -32.862282
LeftUpLeg -97.595097 -27.567375 -53.618687
LeftLeg 137.520834 -0.000000 -0.000000
LeftFoot 31.591981 21.030913 3.815988
LeftToeBase 22.480901 -0.000000 -0.000000
RightUpLeg 18.282901 39.918669 -10.690805
RightLeg 130.029935 -0.000000 -0.000000
RightFoot 43.285673 -20.477376 -17.126109
RightToeBase 16.900704 -0.000000 -0.000000
